<svg id="Capa_1" enable-background="new 0 0 512.001 512.001" height="512" viewBox="0 0 512.001 512.001" width="512" xmlns="http://www.w3.org/2000/svg"><g><path d="m320.037 265.228c-5.405-2.412-11.722-1.423-16.129 2.528-13.205 11.838-30.219 18.358-47.907 18.358s-34.701-6.52-47.907-18.359c-4.407-3.951-10.726-4.942-16.129-2.528-5.403 2.413-8.884 7.778-8.884 13.697v62.313c0 2.992.895 5.916 2.569 8.395l57.92 85.76c2.789 4.129 7.447 6.604 12.431 6.604s9.642-2.475 12.431-6.604l57.92-85.76c1.675-2.479 2.569-5.403 2.569-8.395v-62.311c-.001-5.919-3.48-11.284-8.884-13.698z" fill="#ffcc9e"/><path d="m320.037 265.228c-5.405-2.412-11.722-1.423-16.129 2.528-13.205 11.838-30.219 18.358-47.907 18.358v155.882c4.983 0 9.642-2.475 12.431-6.604l57.92-85.76c1.675-2.479 2.569-5.403 2.569-8.395v-62.311c-.001-5.919-3.48-11.284-8.884-13.698z" fill="#ffae7b"/><path d="m292.46 220.561-36.46 95.55c-56.17 0-101.86-45.69-101.86-101.86v-74.24c0-8.29 6.71-15 15-15h86.86z" fill="#ffe9c0"/><path d="m342.864 125.007h-86.864v191.107c56.168 0 101.863-45.695 101.863-101.862v-74.245c.001-8.284-6.715-15-14.999-15z" fill="#ffcc9e"/><path d="m356.909 89.738-30.003-80.004c-2.536-6.762-9.53-10.755-16.644-9.506l-54.262 9.543-54.26-9.543c-7.116-1.248-14.107 2.744-16.643 9.506l-30.003 80.004c-1.728 4.606-1.086 9.767 1.716 13.811 2.803 4.043 7.409 6.456 12.329 6.456h173.725c4.92 0 9.526-2.413 12.329-6.456 2.802-4.044 3.443-9.205 1.716-13.811z" fill="#c98457"/><path d="m387.868 80.005h-263.735c-8.284 0-15 6.716-15 15v15.002c0 24.813 20.187 45 45 45h203.734c24.813 0 45-20.187 45-45v-15.002c.001-8.284-6.715-15-14.999-15z" fill="#e3a67b"/><path d="m356.909 89.738-30.003-80.004c-2.536-6.762-9.53-10.755-16.644-9.506l-54.262 9.543v100.234h86.863c4.92 0 9.526-2.413 12.329-6.456 2.803-4.044 3.444-9.205 1.717-13.811z" fill="#b06233"/><path d="m387.868 80.005h-131.868v75.002h101.867c24.813 0 45-20.187 45-45v-15.002c.001-8.284-6.715-15-14.999-15z" fill="#c98457"/><path d="m417.216 362.779-51.931-18.852-15.043 4.539-14.954-15.43-6.368-2.312-72.92 81.273-72.92-81.273-6.363 2.31-14.625 15.31-15.374-4.419-51.936 18.855c-21.349 7.754-38.072 31.621-38.072 54.333v79.887c0 8.284 6.716 15 15 15h55.006l129.284-10 129.283 10h55.008c8.284 0 15-6.716 15-15v-79.887c.001-22.713-16.723-46.579-38.075-54.334z" fill="#a5e887"/><path d="m417.216 362.779-51.931-18.852-15.043 4.539-14.954-15.43-6.368-2.312-72.92 81.273v90.003l129.283 10h55.008c8.284 0 15-6.716 15-15v-79.887c.001-22.713-16.723-46.579-38.075-54.334z" fill="#00cc76"/><path d="m350.283 441.997c8.284 0 15-6.716 15-15v-83.072l-30-10.891v93.963c0 8.284 6.716 15 15 15z" fill="#05303d"/><path d="m161.718 441.997c8.284 0 15-6.716 15-15v-93.963l-30 10.891v83.072c0 8.284 6.716 15 15 15z" fill="#0a617d"/><path d="m370.285 411.997h-228.569c-8.284 0-15 6.716-15 15v85.004h258.568v-85.004c.001-8.284-6.715-15-14.999-15z" fill="#0a789b"/><path d="m370.285 411.997h-114.285v100.004h129.284v-85.004c.001-8.284-6.715-15-14.999-15z" fill="#0a617d"/></g></svg>