<svg width="61" height="63" viewBox="0 0 61 63" fill="none" xmlns="http://www.w3.org/2000/svg">
<path d="M30.5 5.25C34.0093 5.25 36.8542 8.18815 36.8542 11.8125C36.8542 15.4368 34.0093 18.375 30.5 18.375C26.9907 18.375 24.1458 15.4368 24.1458 11.8125C24.1458 8.18815 26.9907 5.25 30.5 5.25ZM35.2656 20.0156H34.1378C31.8829 21.0864 29.2143 21.1327 26.8622 20.0156H25.7344C23.1024 20.0156 20.9688 22.2192 20.9688 24.9375V38.8828C20.9688 40.242 22.0356 41.3438 23.3516 41.3438H24.9401V55.2891C24.9401 56.6482 26.0069 57.75 27.3229 57.75H33.6771C34.9931 57.75 36.0599 56.6482 36.0599 55.2891V41.3438H37.6484C38.9644 41.3438 40.0312 40.242 40.0312 38.8828V24.9375C40.0312 22.2192 37.8976 20.0156 35.2656 20.0156Z" fill="#5A9449"/>
</svg>
